<svg width="60" height="60" viewBox="0 0 60 60" xmlns="http://www.w3.org/2000/svg">
  <!-- Fond circulaire avec texture -->
  <circle cx="30" cy="30" r="30" fill="#fef3c7"/>
  
  <!-- Cheveux gris avec ondulations -->
  <path d="M15 18 Q20 12 30 15 Q40 12 45 18 Q42 22 38 20 Q35 18 30 20 Q25 18 22 20 Q18 22 15 18" fill="#9ca3af"/>
  <path d="M18 20 Q25 16 30 18 Q35 16 42 20 Q40 24 35 22 Q30 20 25 22 Q20 24 18 20" fill="#6b7280"/>
  
  <!-- Visage avec teint pêche et joues roses -->
  <circle cx="30" cy="28" r="13" fill="#fbbf24"/>
  <ellipse cx="25" cy="26" rx="2" ry="1.5" fill="#f87171" opacity="0.7"/>
  <ellipse cx="35" cy="26" rx="2" ry="1.5" fill="#f87171" opacity="0.7"/>
  
  <!-- Petites taches de rousseur -->
  <circle cx="27" cy="24" r="0.5" fill="#92400e" opacity="0.6"/>
  <circle cx="33" cy="25" r="0.5" fill="#92400e" opacity="0.6"/>
  <circle cx="29" cy="22" r="0.5" fill="#92400e" opacity="0.6"/>
  
  <!-- Yeux fermés en forme de croissant (sourire) -->
  <path d="M24 25 Q30 27 36 25" stroke="#1f2937" stroke-width="2" fill="none"/>
  <path d="M24 25 Q30 27 36 25" stroke="#1f2937" stroke-width="1.5" fill="none"/>
  
  <!-- Bouche grande ouverte avec langue -->
  <ellipse cx="30" cy="33" rx="6" ry="4" fill="#1f2937"/>
  <ellipse cx="30" cy="33" rx="4" ry="3" fill="#f87171"/>
  <ellipse cx="30" cy="34" rx="2" ry="1.5" fill="#dc2626"/>
  
  <!-- Boucles d'oreilles blanches -->
  <circle cx="20" cy="28" r="1.5" fill="#ffffff"/>
  <circle cx="40" cy="28" r="1.5" fill="#ffffff"/>
  
  <!-- Col blanc de la chemise -->
  <path d="M25 40 Q30 38 35 40 Q35 42 30 44 Q25 42 25 40" fill="#ffffff"/>
  
  <!-- Haut marron -->
  <rect x="22" y="40" width="16" height="12" fill="#92400e" rx="1"/>
  
  <!-- Tablier beige clair -->
  <rect x="20" y="42" width="20" height="10" fill="#fef3c7" rx="2"/>
  <rect x="25" y="40" width="10" height="4" fill="#92400e" rx="1"/>
  
  <!-- Bouton du tablier -->
  <circle cx="30" cy="44" r="1" fill="#92400e"/>
  
  <!-- Bras levés avec mains -->
  <ellipse cx="15" cy="25" rx="4" ry="3" fill="#fbbf24"/>
  <ellipse cx="45" cy="25" rx="4" ry="3" fill="#fbbf24"/>
  
  <!-- Index levés -->
  <rect x="13" y="18" width="2" height="10" fill="#fbbf24" rx="1"/>
  <rect x="43" y="18" width="2" height="10" rx="1"/>
  
  <!-- Autres doigts repliés -->
  <ellipse cx="16" cy="30" rx="1.5" ry="2" fill="#fbbf24"/>
  <ellipse cx="44" cy="30" rx="1.5" ry="2" fill="#fbbf24"/>
  
  <!-- Contours épais pour l'effet cartoon -->
  <circle cx="30" cy="28" r="13" stroke="#1f2937" stroke-width="1" fill="none"/>
  <path d="M15 18 Q20 12 30 15 Q40 12 45 18 Q42 22 38 20 Q35 18 30 20 Q25 18 22 20 Q18 22 15 18" stroke="#1f2937" stroke-width="1" fill="none"/>
</svg>